# This file uses centimeters as units for non-parametric coordinates.

mtllib Frame.mtl
g default
v -3.423349 -2.451952 0.281716
v 3.423349 -2.451952 0.281716
v -3.423349 2.451952 0.281716
v 3.423349 2.451952 0.281716
v -3.423349 2.451952 -0.281716
v 3.423349 2.451952 -0.281716
v -3.423349 -2.451952 -0.281716
v 3.423349 -2.451952 -0.281716
v -3.008499 -1.975668 0.281716
v 3.008499 -1.975668 0.281716
v 3.008499 1.975668 0.281716
v -3.008499 1.975668 0.281716
v -3.008499 -1.975668 0.128474
v 3.008499 -1.975668 0.128474
v 3.008499 1.975668 0.128474
v -3.008499 1.975668 0.128474
vt 0.195536 0.045706
vt 0.781585 0.041021
vt 0.200331 0.512280
vt 0.784230 0.508562
vt 0.199069 0.558813
vt 0.785888 0.554182
vt 0.199362 0.940343
vt 0.791434 0.935835
vt 0.204814 0.988082
vt 0.786739 0.983624
vt 0.857845 0.032189
vt 0.862452 0.512196
vt 0.119348 0.037781
vt 0.121857 0.517907
vt 0.237085 0.084263
vt 0.740975 0.080754
vt 0.742720 0.466126
vt 0.239666 0.470995
vt 0.247832 0.098059
vt 0.730565 0.094679
vt 0.735581 0.455602
vt 0.248331 0.458501
vn 0.000000 0.000000 1.000000
vn 0.000000 0.000000 1.000000
vn 0.000000 0.000000 1.000000
vn 0.000000 0.000000 1.000000
vn 0.000000 1.000000 0.000000
vn 0.000000 1.000000 0.000000
vn 0.000000 1.000000 0.000000
vn 0.000000 1.000000 0.000000
vn 0.000000 0.000000 -1.000000
vn 0.000000 0.000000 -1.000000
vn 0.000000 0.000000 -1.000000
vn 0.000000 0.000000 -1.000000
vn 0.000000 -1.000000 0.000000
vn 0.000000 -1.000000 0.000000
vn 0.000000 -1.000000 0.000000
vn 0.000000 -1.000000 0.000000
vn 1.000000 0.000000 0.000000
vn 1.000000 0.000000 0.000000
vn 1.000000 0.000000 0.000000
vn 1.000000 0.000000 0.000000
vn -1.000000 0.000000 0.000000
vn -1.000000 0.000000 0.000000
vn -1.000000 0.000000 0.000000
vn -1.000000 0.000000 0.000000
vn 0.000000 0.000000 1.000000
vn 0.000000 0.000000 1.000000
vn 0.000000 0.000000 1.000000
vn 0.000000 0.000000 1.000000
vn -0.000000 0.000000 1.000000
vn -0.000000 0.000000 1.000000
vn -0.000000 0.000000 1.000000
vn -0.000000 0.000000 1.000000
vn 0.000000 0.000000 1.000000
vn 0.000000 0.000000 1.000000
vn 0.000000 0.000000 1.000000
vn 0.000000 0.000000 1.000000
vn 0.000000 0.000000 1.000000
vn 0.000000 0.000000 1.000000
vn 0.000000 0.000000 1.000000
vn 0.000000 0.000000 1.000000
vn 0.000000 1.000000 0.000000
vn 0.000000 1.000000 0.000000
vn 0.000000 1.000000 0.000000
vn 0.000000 1.000000 0.000000
vn -1.000000 0.000000 0.000000
vn -1.000000 0.000000 0.000000
vn -1.000000 0.000000 0.000000
vn -1.000000 0.000000 0.000000
vn 0.000000 -1.000000 0.000000
vn 0.000000 -1.000000 0.000000
vn 0.000000 -1.000000 0.000000
vn 0.000000 -1.000000 0.000000
vn 1.000000 0.000000 0.000000
vn 1.000000 0.000000 0.000000
vn 1.000000 0.000000 0.000000
vn 1.000000 0.000000 0.000000
s off
g pCube1
usemtl lambert2SG
f 13/19/1 14/20/2 15/21/3 16/22/4
f 3/3/5 4/4/6 6/6/7 5/5/8
f 5/5/9 6/6/10 8/8/11 7/7/12
f 7/7/13 8/8/14 2/10/15 1/9/16
f 2/2/17 8/11/18 6/12/19 4/4/20
f 7/13/21 1/1/22 3/3/23 5/14/24
f 1/1/25 2/2/26 10/16/27 9/15/28
f 2/2/29 4/4/30 11/17/31 10/16/32
f 4/4/33 3/3/34 12/18/35 11/17/36
f 3/3/37 1/1/38 9/15/39 12/18/40
f 9/15/41 10/16/42 14/20/43 13/19/44
f 10/16/45 11/17/46 15/21/47 14/20/48
f 11/17/49 12/18/50 16/22/51 15/21/52
f 12/18/53 9/15/54 13/19/55 16/22/56
